<svg xmlns="http://www.w3.org/2000/svg" version="1.1" viewBox="0.00 0.00 736.00 735.00" width="736.00" height="735.00">
<g stroke-width="2.00" fill="none" stroke-linecap="butt">
<path stroke="#808080" d="&#10;  M 551.21 155.77&#10;  L 559.56 163.56&#10;  A 0.25 0.25 0.0 0 0 559.91 163.55&#10;  L 562.87 160.37&#10;  A 5.87 5.61 -47.0 0 0 562.77 152.25&#10;  L 562.26 151.78&#10;  A 5.87 5.61 -47.0 0 0 554.15 152.24&#10;  L 551.19 155.42&#10;  A 0.25 0.25 0.0 0 0 551.21 155.77"/>
<path stroke="#808080" d="&#10;  M 176.14 163.71&#10;  L 184.50 155.90&#10;  A 0.25 0.25 0.0 0 0 184.51 155.54&#10;  L 181.56 152.40&#10;  A 5.92 5.81 46.9 0 0 173.28 152.04&#10;  L 173.04 152.26&#10;  A 5.92 5.81 46.9 0 0 172.85 160.56&#10;  L 175.79 163.70&#10;  A 0.25 0.25 0.0 0 0 176.14 163.71"/>
<path stroke="#808080" d="&#10;  M 548.91 164.21&#10;  A 0.12 0.11 -46.6 0 1 548.91 164.38&#10;  L 418.49 297.36&#10;  A 0.42 0.42 0.0 0 0 418.49 297.96&#10;  L 424.72 304.14&#10;  A 0.22 0.21 -44.1 0 0 425.03 304.14&#10;  L 556.58 166.91&#10;  A 0.62 0.62 0.0 0 0 556.62 166.11&#10;  Q 553.34 161.74 548.69 158.76&#10;  A 0.81 0.81 0.0 0 0 547.68 158.87&#10;  L 414.14 293.25&#10;  A 0.59 0.58 -46.1 0 0 414.15 294.07&#10;  L 416.12 295.95&#10;  A 0.77 0.76 44.2 0 0 417.20 295.94&#10;  L 548.28 164.03&#10;  A 0.31 0.31 0.0 0 1 548.72 164.03&#10;  L 548.91 164.21"/>
<path stroke="#808080" d="&#10;  M 186.85 164.39&#10;  L 187.04 164.21&#10;  A 0.31 0.31 0.0 0 1 187.48 164.21&#10;  L 318.41 296.01&#10;  A 0.77 0.76 -44.2 0 0 319.49 296.02&#10;  L 321.46 294.15&#10;  A 0.59 0.58 46.1 0 0 321.47 293.33&#10;  L 188.08 159.05&#10;  A 0.81 0.81 0.0 0 0 187.07 158.94&#10;  Q 182.42 161.92 179.15 166.28&#10;  A 0.62 0.61 -48.1 0 0 179.19 167.08&#10;  L 310.59 304.20&#10;  A 0.22 0.21 44.1 0 0 310.90 304.20&#10;  L 317.13 298.03&#10;  A 0.42 0.42 0.0 0 0 317.13 297.43&#10;  L 186.85 164.56&#10;  A 0.12 0.11 46.6 0 1 186.85 164.39"/>
<path stroke="#808080" d="&#10;  M 377.73 227.68&#10;  A 0.33 0.33 0.0 0 1 377.43 227.46&#10;  L 368.43 202.12&#10;  A 0.33 0.33 0.0 0 0 367.81 202.12&#10;  L 358.81 227.46&#10;  A 0.33 0.33 0.0 0 1 358.51 227.68&#10;  L 331.63 228.41&#10;  A 0.33 0.33 0.0 0 0 331.43 229.00&#10;  L 352.76 245.38&#10;  A 0.33 0.33 0.0 0 1 352.88 245.74&#10;  L 345.25 271.53&#10;  A 0.33 0.33 0.0 0 0 345.76 271.90&#10;  L 367.93 256.68&#10;  A 0.33 0.33 0.0 0 1 368.31 256.68&#10;  L 390.48 271.90&#10;  A 0.33 0.33 0.0 0 0 390.99 271.53&#10;  L 383.36 245.74&#10;  A 0.33 0.33 0.0 0 1 383.48 245.38&#10;  L 404.81 229.00&#10;  A 0.33 0.33 0.0 0 0 404.61 228.41&#10;  L 377.73 227.68"/>
<path stroke="#808080" d="&#10;  M 430.71 352.13&#10;  A 63.18 63.18 0.0 0 0 367.53 288.95&#10;  A 63.18 63.18 0.0 0 0 304.35 352.13&#10;  A 63.18 63.18 0.0 0 0 367.53 415.31&#10;  A 63.18 63.18 0.0 0 0 430.71 352.13"/>
<path stroke="#e98781" d="&#10;  M 474.39 338.75&#10;  C 472.11 337.69 470.08 335.93 467.47 334.53&#10;  Q 453.58 327.10 437.50 325.61&#10;  A 0.55 0.54 -8.0 0 0 436.94 326.35&#10;  C 442.16 339.91 442.90 355.31 439.56 369.41&#10;  A 0.35 0.35 0.0 0 0 439.91 369.84&#10;  Q 465.21 369.49 493.62 370.99&#10;  A 0.80 0.80 0.0 0 0 494.46 370.15&#10;  Q 493.24 346.52 477.36 329.43&#10;  Q 461.37 312.23 436.16 309.50&#10;  Q 435.58 309.44 428.37 309.48&#10;  A 0.19 0.19 0.0 0 0 428.21 309.77&#10;  L 433.40 318.05&#10;  A 0.52 0.51 72.3 0 0 433.85 318.29&#10;  Q 459.65 318.05 474.91 338.10&#10;  A 0.43 0.43 0.0 0 1 474.39 338.75"/>
<path stroke="#869eb7" d="&#10;  M 302.48 315.44&#10;  C 252.42 303.34 209.14 350.65 227.53 399.58&#10;  A 0.63 0.62 -16.7 0 0 228.25 399.96&#10;  Q 264.67 391.01 299.69 383.85&#10;  A 0.61 0.60 72.4 0 0 300.12 383.01&#10;  Q 285.50 348.98 302.74 316.02&#10;  A 0.41 0.40 -69.4 0 0 302.48 315.44"/>
<path stroke="#808080" d="&#10;  M 603.09 387.62&#10;  Q 540.84 380.45 479.00 377.77&#10;  Q 456.06 376.77 437.92 377.36&#10;  A 1.05 1.03 -77.3 0 0 437.03 377.93&#10;  C 424.78 402.55 402.75 419.12 375.70 422.69&#10;  C 347.55 426.41 320.57 414.06 304.44 390.91&#10;  A 0.98 0.98 0.0 0 0 303.44 390.51&#10;  Q 217.34 408.26 133.06 433.46&#10;  A 0.46 0.46 0.0 0 0 132.80 434.13&#10;  L 179.13 515.91&#10;  A 0.69 0.67 66.7 0 0 179.91 516.23&#10;  Q 232.83 501.23 287.74 491.72&#10;  Q 432.00 466.73 578.35 476.08&#10;  A 0.34 0.34 0.0 0 0 578.69 475.83&#10;  L 603.51 388.25&#10;  A 0.50 0.49 -79.1 0 0 603.09 387.62"/>
<path stroke="#808080" d="&#10;  M 548.76 534.52&#10;  L 500.74 485.52&#10;  A 1.82 1.80 -22.9 0 0 499.37 484.97&#10;  L 484.75 485.40&#10;  A 0.48 0.48 0.0 0 0 484.42 486.22&#10;  L 543.76 548.10&#10;  A 0.33 0.33 0.0 0 0 544.31 547.99&#10;  Q 548.42 537.45 559.08 533.94&#10;  A 0.27 0.27 0.0 0 0 559.19 533.49&#10;  L 512.58 485.91&#10;  A 2.75 2.73 -23.2 0 0 510.54 485.10&#10;  L 506.80 485.21&#10;  A 0.26 0.26 0.0 0 0 506.62 485.66&#10;  L 552.27 532.25&#10;  A 0.11 0.11 0.0 0 1 552.26 532.41&#10;  L 549.24 534.57&#10;  A 0.37 0.37 0.0 0 1 548.76 534.52"/>
<path stroke="#808080" d="&#10;  M 377.58 546.20&#10;  C 376.36 550.95 376.54 555.51 380.17 559.10&#10;  C 383.87 562.75 389.54 562.30 393.59 559.29&#10;  Q 398.93 555.34 402.75 549.48&#10;  A 0.44 0.44 0.0 0 1 403.55 549.72&#10;  C 403.58 559.14 411.97 563.93 420.46 561.17&#10;  C 427.85 558.76 433.50 551.67 437.38 544.65&#10;  C 441.89 536.47 444.40 523.43 436.00 516.99&#10;  A 0.81 0.81 0.0 0 1 435.85 515.85&#10;  C 438.53 512.42 441.23 507.51 439.72 503.26&#10;  C 438.29 499.22 433.48 498.20 430.12 500.62&#10;  Q 426.48 503.24 424.40 505.91&#10;  Q 414.88 518.11 407.08 535.24&#10;  A 10.75 10.67 76.4 0 1 405.76 537.42&#10;  C 402.87 541.11 393.74 551.68 389.58 552.22&#10;  A 1.21 1.21 0.0 0 1 388.25 550.77&#10;  Q 389.32 545.75 392.75 540.76&#10;  Q 400.04 530.18 400.09 530.10&#10;  Q 402.93 526.10 404.34 521.86&#10;  C 405.19 519.33 404.50 516.09 401.45 515.68&#10;  C 397.26 515.12 393.81 517.49 391.13 520.64&#10;  C 382.32 531.01 374.84 540.26 366.28 547.77&#10;  Q 364.80 549.07 363.14 549.34&#10;  A 0.94 0.93 3.2 0 1 362.09 548.17&#10;  Q 362.96 545.01 364.74 542.00&#10;  Q 370.12 532.94 376.81 526.24&#10;  C 379.82 523.23 381.90 520.22 378.94 516.81&#10;  C 372.16 509.00 359.63 527.83 356.97 532.47&#10;  Q 354.17 537.36 351.02 541.17&#10;  C 348.25 544.52 342.85 551.38 339.78 552.08&#10;  A 1.37 1.37 0.0 0 1 338.10 550.60&#10;  Q 338.51 546.86 340.49 542.46&#10;  Q 343.51 535.78 347.38 528.91&#10;  A 5.24 5.17 -6.0 0 1 348.53 527.51&#10;  C 353.69 523.08 367.10 509.14 362.48 502.01&#10;  C 360.45 498.88 356.74 498.62 353.74 500.52&#10;  C 348.30 503.96 344.28 510.38 341.04 516.04&#10;  Q 335.22 526.22 331.20 535.79&#10;  A 7.59 7.38 -12.8 0 1 329.75 538.02&#10;  Q 321.07 547.30 309.48 550.73&#10;  C 300.60 553.35 294.95 549.06 297.46 539.69&#10;  C 299.97 530.32 307.84 518.81 316.82 514.59&#10;  Q 318.98 513.57 320.42 513.79&#10;  A 2.62 2.44 -83.8 0 1 322.47 516.54&#10;  C 322.20 520.46 320.24 523.80 317.92 526.73&#10;  C 316.61 528.39 316.13 530.25 317.70 531.79&#10;  C 318.82 532.88 321.25 532.85 322.43 532.16&#10;  C 328.64 528.57 332.93 521.80 332.71 514.43&#10;  C 332.37 503.38 320.65 500.57 312.14 503.99&#10;  C 300.45 508.67 292.21 519.67 287.52 531.26&#10;  C 282.97 542.51 284.53 558.71 298.88 561.62&#10;  C 309.46 563.77 319.38 557.56 326.90 550.17&#10;  A 0.30 0.30 0.0 0 1 327.41 550.39&#10;  Q 327.43 557.48 331.04 560.18&#10;  C 337.94 565.35 345.05 559.45 349.31 554.13&#10;  A 0.30 0.30 0.0 0 1 349.84 554.25&#10;  Q 351.04 559.33 355.36 561.33&#10;  C 364.73 565.65 373.37 552.81 377.02 545.98&#10;  A 0.30 0.30 0.0 0 1 377.58 546.20"/>
<path stroke="#808080" d="&#10;  M 218.39 519.35&#10;  Q 189.13 526.48 183.87 527.86&#10;  Q 180.07 528.86 179.48 529.47&#10;  Q 171.27 538.08 164.10 545.55&#10;  A 0.32 0.32 0.0 0 0 164.23 546.07&#10;  Q 175.02 549.69 179.11 560.23&#10;  A 0.32 0.32 0.0 0 0 179.65 560.34&#10;  L 218.60 519.72&#10;  A 0.22 0.22 0.0 0 0 218.39 519.35"/>
<path stroke="#808080" d="&#10;  M 231.63 541.17&#10;  A 0.31 0.31 0.0 0 0 231.92 541.63&#10;  L 273.21 538.90&#10;  A 0.31 0.31 0.0 0 0 273.45 538.43&#10;  L 271.18 534.81&#10;  A 0.31 0.31 0.0 0 0 270.95 534.67&#10;  L 237.25 531.80&#10;  A 0.31 0.31 0.0 0 0 236.95 531.95&#10;  L 231.63 541.17"/>
<path stroke="#808080" d="&#10;  M 494.38 531.99&#10;  A 0.42 0.42 0.0 0 0 494.00 531.82&#10;  L 460.90 534.64&#10;  A 0.42 0.42 0.0 0 0 460.63 534.76&#10;  L 457.46 538.07&#10;  A 0.42 0.42 0.0 0 0 457.74 538.78&#10;  L 500.46 541.65&#10;  A 0.42 0.42 0.0 0 0 500.83 540.99&#10;  L 494.38 531.99"/>
<path stroke="#808080" d="&#10;  M 566.7066 540.5895&#10;  A 11.01 7.17 -43.8 0 0 553.7973 543.0350&#10;  A 11.01 7.17 -43.8 0 0 550.8134 555.8305&#10;  A 11.01 7.17 -43.8 0 0 563.7227 553.3850&#10;  A 11.01 7.17 -43.8 0 0 566.7066 540.5895"/>
<path stroke="#808080" d="&#10;  M 172.6254 568.0628&#10;  A 10.99 7.16 43.7 0 0 169.6267 555.2936&#10;  A 10.99 7.16 43.7 0 0 156.7346 552.8772&#10;  A 10.99 7.16 43.7 0 0 159.7333 565.6464&#10;  A 10.99 7.16 43.7 0 0 172.6254 568.0628"/>
<path stroke="#808080" d="&#10;  M 382.7199 300.1617&#10;  A 2.70 2.33 -0.6 0 0 379.9956 297.8601&#10;  A 2.70 2.33 -0.6 0 0 377.3201 300.2183&#10;  A 2.70 2.33 -0.6 0 0 380.0444 302.5199&#10;  A 2.70 2.33 -0.6 0 0 382.7199 300.1617"/>
<path stroke="#808080" d="&#10;  M 347.43 310.19&#10;  A 0.31 0.31 0.0 0 1 347.34 309.63&#10;  Q 357.58 303.04 369.35 299.85&#10;  A 0.72 0.72 0.0 0 0 369.86 299.00&#10;  Q 369.84 298.91 369.64 298.69&#10;  A 0.61 0.58 67.0 0 0 369.21 298.50&#10;  Q 346.47 298.68 331.46 312.55&#10;  Q 313.64 329.03 313.88 353.97&#10;  A 0.65 0.64 -16.7 0 0 314.87 354.50&#10;  Q 315.06 354.38 315.18 353.94&#10;  Q 318.95 340.44 326.14 330.33&#10;  A 0.36 0.36 0.0 0 1 326.76 330.38&#10;  Q 328.82 334.56 333.74 334.78&#10;  C 340.96 335.11 347.50 330.21 350.99 324.23&#10;  C 353.69 319.60 354.11 312.01 347.43 310.19"/>
<path stroke="#5a5a5a" d="&#10;  M 366.81 320.74&#10;  A 29.75 28.71 51.5 0 0 362.72 326.43&#10;  A 29.54 28.53 50.5 0 0 364.54 356.96&#10;  A 29.56 28.53 51.9 0 0 377.69 367.81&#10;  A 29.58 28.57 50.5 0 0 397.25 369.04&#10;  A 29.55 28.53 48.8 0 0 412.57 357.68"/>
<path stroke="#808080" d="&#10;  M 412.57 357.68&#10;  A 29.50 28.49 50.3 0 0 417.11 339.88&#10;  A 29.55 28.53 50.5 0 0 399.78 314.74&#10;  A 29.56 28.54 50.3 0 0 369.75 318.00&#10;  A 29.21 28.16 57.2 0 0 366.81 320.74"/>
<path stroke="#d9d9d9" d="&#10;  M 412.57 357.68&#10;  Q 410.07 358.15 406.13 360.63&#10;  Q 402.12 363.15 396.25 363.93&#10;  C 381.27 365.91 366.91 354.69 364.10 339.84&#10;  Q 363.82 338.36 364.12 335.70&#10;  Q 364.31 333.97 364.10 331.56&#10;  A 3.03 2.95 50.9 0 1 364.19 330.56&#10;  L 366.81 320.74"/>
<path stroke="#808080" d="&#10;  M 400.22 335.19&#10;  Q 403.90 330.77 401.30 325.70&#10;  C 398.02 319.30 389.19 318.98 383.55 321.82&#10;  C 377.65 324.78 375.89 331.17 380.20 336.54&#10;  C 380.70 337.17 381.90 337.71 382.51 338.30&#10;  A 0.60 0.60 0.0 0 1 382.48 339.19&#10;  C 376.16 344.65 379.69 354.50 387.62 356.13&#10;  Q 395.27 357.70 401.66 353.90&#10;  C 407.36 350.51 408.40 342.58 403.42 338.15&#10;  C 402.42 337.26 400.95 336.75 400.31 336.21&#10;  A 0.73 0.72 40.2 0 1 400.22 335.19"/>
<path stroke="#869eb7" d="&#10;  M 248.02 338.53&#10;  C 238.67 347.84 234.12 359.52 233.84 372.99&#10;  Q 233.83 373.82 234.06 374.19&#10;  A 0.46 0.46 0.0 0 0 234.88 374.09&#10;  Q 240.41 356.78 253.35 343.88&#10;  Q 266.30 330.99 283.63 325.52&#10;  A 0.46 0.46 0.0 0 0 283.73 324.70&#10;  Q 283.36 324.47 282.54 324.48&#10;  C 269.07 324.70 257.36 329.22 248.02 338.53"/>
<path stroke="#808080" d="&#10;  M 394.7894 330.8429&#10;  A 4.64 4.28 0.9 0 0 390.2172 326.4905&#10;  A 4.64 4.28 0.9 0 0 385.5106 330.6971&#10;  A 4.64 4.28 0.9 0 0 390.0828 335.0495&#10;  A 4.64 4.28 0.9 0 0 394.7894 330.8429"/>
<path stroke="#808080" d="&#10;  M 397.7916 344.7776&#10;  A 5.08 4.57 -3.3 0 0 392.4569 340.5076&#10;  A 5.08 4.57 -3.3 0 0 387.6484 345.3624&#10;  A 5.08 4.57 -3.3 0 0 392.9831 349.6324&#10;  A 5.08 4.57 -3.3 0 0 397.7916 344.7776"/>
<path stroke="#808080" d="&#10;  M 512.16 400.80&#10;  L 511.15 453.61&#10;  A 0.57 0.57 0.0 0 0 511.71 454.20&#10;  L 530.81 454.56&#10;  A 27.22 26.90 1.1 0 0 558.54 428.19&#10;  L 558.55 428.03&#10;  A 27.22 26.90 1.1 0 0 531.85 400.61&#10;  L 512.74 400.25&#10;  A 0.57 0.57 0.0 0 0 512.16 400.80"/>
<path stroke="#808080" d="&#10;  M 503.87 453.54&#10;  L 492.60 435.57&#10;  A 0.79 0.78 -42.1 0 1 492.65 434.66&#10;  Q 502.13 423.09 495.29 410.79&#10;  C 492.23 405.29 486.07 401.30 480.17 401.10&#10;  Q 476.24 400.97 455.54 401.66&#10;  A 0.54 0.54 0.0 0 0 455.02 402.22&#10;  L 456.60 455.18&#10;  A 0.37 0.37 0.0 0 0 456.99 455.54&#10;  L 470.26 455.15&#10;  A 0.55 0.55 0.0 0 0 470.79 454.58&#10;  L 470.39 441.30&#10;  A 0.53 0.53 0.0 0 1 470.90 440.76&#10;  L 478.48 440.53&#10;  A 0.98 0.96 -16.4 0 1 479.32 440.98&#10;  L 487.58 454.16&#10;  A 0.95 0.95 0.0 0 0 488.42 454.61&#10;  L 503.54 454.16&#10;  A 0.41 0.40 73.2 0 0 503.87 453.54"/>
<path stroke="#808080" d="&#10;  M 393.24 459.75&#10;  L 406.38 458.88&#10;  A 0.79 0.79 0.0 0 0 407.05 458.38&#10;  L 409.48 451.98&#10;  A 0.87 0.86 -81.3 0 1 410.22 451.43&#10;  L 430.91 450.06&#10;  A 1.09 1.08 73.0 0 1 431.93 450.61&#10;  L 435.04 456.11&#10;  A 0.99 0.99 0.0 0 0 435.98 456.61&#10;  L 448.94 455.76&#10;  A 0.46 0.46 0.0 0 0 449.31 455.07&#10;  L 422.34 407.46&#10;  A 0.32 0.32 0.0 0 0 421.84 407.40&#10;  Q 415.90 413.67 409.38 418.16&#10;  A 4.21 4.18 83.4 0 0 407.80 420.17&#10;  L 392.92 459.32&#10;  A 0.32 0.32 0.0 0 0 393.24 459.75"/>
<path stroke="#808080" d="&#10;  M 321.93 416.14&#10;  L 328.21 466.60&#10;  A 0.55 0.55 0.0 0 0 328.83 467.08&#10;  L 361.28 463.04&#10;  A 0.35 0.34 83.4 0 0 361.58 462.65&#10;  L 359.93 449.40&#10;  A 0.55 0.55 0.0 0 0 359.31 448.92&#10;  L 341.31 451.16&#10;  A 0.69 0.68 -7.0 0 1 340.54 450.56&#10;  L 337.39 425.29&#10;  A 1.17 1.17 0.0 0 0 336.70 424.36&#10;  Q 330.31 421.56 322.48 415.82&#10;  A 0.35 0.35 0.0 0 0 321.93 416.14"/>
<path stroke="#808080" d="&#10;  M 291.35 418.36&#10;  A 0.35 0.35 0.0 0 0 290.95 418.06&#10;  L 277.60 420.04&#10;  A 0.35 0.35 0.0 0 0 277.30 420.44&#10;  L 285.07 473.15&#10;  A 0.35 0.35 0.0 0 0 285.47 473.45&#10;  L 318.01 468.65&#10;  A 0.35 0.35 0.0 0 0 318.31 468.25&#10;  L 316.33 454.83&#10;  A 0.35 0.35 0.0 0 0 315.93 454.53&#10;  L 297.45 457.25&#10;  A 0.35 0.35 0.0 0 1 297.05 456.95&#10;  L 291.35 418.36"/>
<path stroke="#808080" d="&#10;  M 264.8509 422.9454&#10;  A 0.58 0.58 0.0 0 0 264.1749 422.4808&#10;  L 251.3336 424.8608&#10;  A 0.58 0.58 0.0 0 0 250.8690 425.5368&#10;  L 260.4691 477.3346&#10;  A 0.58 0.58 0.0 0 0 261.1451 477.7992&#10;  L 273.9864 475.4192&#10;  A 0.58 0.58 0.0 0 0 274.4510 474.7432&#10;  L 264.8509 422.9454"/>
<path stroke="#808080" d="&#10;  M 382.2259 426.7375&#10;  A 0.26 0.26 0.0 0 0 381.9409 426.5051&#10;  L 368.3110 427.8896&#10;  A 0.26 0.26 0.0 0 0 368.0787 428.1745&#10;  L 371.4741 461.6025&#10;  A 0.26 0.26 0.0 0 0 371.7591 461.8349&#10;  L 385.3890 460.4504&#10;  A 0.26 0.26 0.0 0 0 385.6213 460.1655&#10;  L 382.2259 426.7375"/>
<path stroke="#808080" d="&#10;  M 192.72 436.80&#10;  A 0.26 0.26 0.0 0 0 192.64 437.28&#10;  L 200.45 441.79&#10;  A 1.50 1.47 9.1 0 1 201.17 442.76&#10;  L 210.74 487.42&#10;  A 0.46 0.46 0.0 0 0 211.29 487.77&#10;  Q 235.26 482.66 236.80 482.31&#10;  C 250.95 479.06 254.06 459.80 240.88 453.04&#10;  A 0.55 0.55 0.0 0 1 240.63 452.31&#10;  C 243.15 447.02 242.35 440.44 238.58 435.99&#10;  Q 231.97 428.20 221.51 430.54&#10;  Q 204.33 434.38 192.72 436.80"/>
<path stroke="#808080" d="&#10;  M 526.01 415.26&#10;  L 525.49 439.85&#10;  A 0.44 0.44 0.0 0 0 525.93 440.30&#10;  L 531.68 440.42&#10;  A 12.54 12.34 -88.8 0 0 544.28 428.14&#10;  L 544.29 427.74&#10;  A 12.54 12.34 -88.8 0 0 532.22 414.95&#10;  L 526.46 414.83&#10;  A 0.44 0.44 0.0 0 0 526.01 415.26"/>
<path stroke="#808080" d="&#10;  M 469.59 413.56&#10;  L 469.92 428.14&#10;  A 0.42 0.42 0.0 0 0 470.35 428.55&#10;  L 477.97 428.37&#10;  A 8.45 7.18 -1.3 0 0 486.26 421.00&#10;  L 486.24 419.94&#10;  A 8.45 7.18 -1.3 0 0 477.63 412.96&#10;  L 470.00 413.13&#10;  A 0.42 0.42 0.0 0 0 469.59 413.56"/>
<path stroke="#808080" d="&#10;  M 414.51 438.67&#10;  A 0.33 0.33 0.0 0 0 414.84 439.11&#10;  L 424.60 438.41&#10;  A 0.33 0.33 0.0 0 0 424.87 437.93&#10;  L 419.23 427.68&#10;  A 0.33 0.33 0.0 0 0 418.63 427.72&#10;  L 414.51 438.67"/>
<path stroke="#808080" d="&#10;  M 216.02 444.24&#10;  L 217.73 452.32&#10;  A 0.53 0.53 0.0 0 0 218.36 452.73&#10;  L 223.99 451.53&#10;  A 5.16 4.43 -12.0 0 0 228.11 446.13&#10;  L 228.02 445.68&#10;  A 5.16 4.43 -12.0 0 0 222.05 442.42&#10;  L 216.42 443.61&#10;  A 0.53 0.53 0.0 0 0 216.02 444.24"/>
<path stroke="#808080" d="&#10;  M 220.49 465.12&#10;  L 222.10 472.77&#10;  A 0.80 0.80 0.0 0 0 223.05 473.39&#10;  L 230.32 471.85&#10;  A 5.85 4.26 -11.9 0 0 235.16 466.48&#10;  L 234.98 465.60&#10;  A 5.85 4.26 -11.9 0 0 228.37 462.64&#10;  L 221.10 464.17&#10;  A 0.80 0.80 0.0 0 0 220.49 465.12"/>
<path stroke="#808080" d="&#10;  M 413.76 551.15&#10;  A 1.23 1.23 0.0 0 0 415.50 552.29&#10;  C 421.96 549.30 427.45 539.53 429.73 533.30&#10;  C 430.78 530.42 431.01 527.65 428.04 526.39&#10;  A 2.77 2.39 -59.2 0 0 425.00 527.40&#10;  Q 418.25 536.44 414.38 547.62&#10;  Q 413.79 549.34 413.76 551.15"/>
</g>
<path fill="#ffffff" d="&#10;  M 736.00 0.00&#10;  L 736.00 735.00&#10;  L 0.00 735.00&#10;  L 0.00 0.00&#10;  L 736.00 0.00&#10;  Z&#10;  M 551.21 155.77&#10;  L 559.56 163.56&#10;  A 0.25 0.25 0.0 0 0 559.91 163.55&#10;  L 562.87 160.37&#10;  A 5.87 5.61 -47.0 0 0 562.77 152.25&#10;  L 562.26 151.78&#10;  A 5.87 5.61 -47.0 0 0 554.15 152.24&#10;  L 551.19 155.42&#10;  A 0.25 0.25 0.0 0 0 551.21 155.77&#10;  Z&#10;  M 176.14 163.71&#10;  L 184.50 155.90&#10;  A 0.25 0.25 0.0 0 0 184.51 155.54&#10;  L 181.56 152.40&#10;  A 5.92 5.81 46.9 0 0 173.28 152.04&#10;  L 173.04 152.26&#10;  A 5.92 5.81 46.9 0 0 172.85 160.56&#10;  L 175.79 163.70&#10;  A 0.25 0.25 0.0 0 0 176.14 163.71&#10;  Z&#10;  M 548.91 164.21&#10;  A 0.12 0.11 -46.6 0 1 548.91 164.38&#10;  L 418.49 297.36&#10;  A 0.42 0.42 0.0 0 0 418.49 297.96&#10;  L 424.72 304.14&#10;  A 0.22 0.21 -44.1 0 0 425.03 304.14&#10;  L 556.58 166.91&#10;  A 0.62 0.62 0.0 0 0 556.62 166.11&#10;  Q 553.34 161.74 548.69 158.76&#10;  A 0.81 0.81 0.0 0 0 547.68 158.87&#10;  L 414.14 293.25&#10;  A 0.59 0.58 -46.1 0 0 414.15 294.07&#10;  L 416.12 295.95&#10;  A 0.77 0.76 44.2 0 0 417.20 295.94&#10;  L 548.28 164.03&#10;  A 0.31 0.31 0.0 0 1 548.72 164.03&#10;  L 548.91 164.21&#10;  Z&#10;  M 186.85 164.39&#10;  L 187.04 164.21&#10;  A 0.31 0.31 0.0 0 1 187.48 164.21&#10;  L 318.41 296.01&#10;  A 0.77 0.76 -44.2 0 0 319.49 296.02&#10;  L 321.46 294.15&#10;  A 0.59 0.58 46.1 0 0 321.47 293.33&#10;  L 188.08 159.05&#10;  A 0.81 0.81 0.0 0 0 187.07 158.94&#10;  Q 182.42 161.92 179.15 166.28&#10;  A 0.62 0.61 -48.1 0 0 179.19 167.08&#10;  L 310.59 304.20&#10;  A 0.22 0.21 44.1 0 0 310.90 304.20&#10;  L 317.13 298.03&#10;  A 0.42 0.42 0.0 0 0 317.13 297.43&#10;  L 186.85 164.56&#10;  A 0.12 0.11 46.6 0 1 186.85 164.39&#10;  Z&#10;  M 377.73 227.68&#10;  A 0.33 0.33 0.0 0 1 377.43 227.46&#10;  L 368.43 202.12&#10;  A 0.33 0.33 0.0 0 0 367.81 202.12&#10;  L 358.81 227.46&#10;  A 0.33 0.33 0.0 0 1 358.51 227.68&#10;  L 331.63 228.41&#10;  A 0.33 0.33 0.0 0 0 331.43 229.00&#10;  L 352.76 245.38&#10;  A 0.33 0.33 0.0 0 1 352.88 245.74&#10;  L 345.25 271.53&#10;  A 0.33 0.33 0.0 0 0 345.76 271.90&#10;  L 367.93 256.68&#10;  A 0.33 0.33 0.0 0 1 368.31 256.68&#10;  L 390.48 271.90&#10;  A 0.33 0.33 0.0 0 0 390.99 271.53&#10;  L 383.36 245.74&#10;  A 0.33 0.33 0.0 0 1 383.48 245.38&#10;  L 404.81 229.00&#10;  A 0.33 0.33 0.0 0 0 404.61 228.41&#10;  L 377.73 227.68&#10;  Z&#10;  M 430.71 352.13&#10;  A 63.18 63.18 0.0 0 0 367.53 288.95&#10;  A 63.18 63.18 0.0 0 0 304.35 352.13&#10;  A 63.18 63.18 0.0 0 0 367.53 415.31&#10;  A 63.18 63.18 0.0 0 0 430.71 352.13&#10;  Z&#10;  M 474.39 338.75&#10;  C 472.11 337.69 470.08 335.93 467.47 334.53&#10;  Q 453.58 327.10 437.50 325.61&#10;  A 0.55 0.54 -8.0 0 0 436.94 326.35&#10;  C 442.16 339.91 442.90 355.31 439.56 369.41&#10;  A 0.35 0.35 0.0 0 0 439.91 369.84&#10;  Q 465.21 369.49 493.62 370.99&#10;  A 0.80 0.80 0.0 0 0 494.46 370.15&#10;  Q 493.24 346.52 477.36 329.43&#10;  Q 461.37 312.23 436.16 309.50&#10;  Q 435.58 309.44 428.37 309.48&#10;  A 0.19 0.19 0.0 0 0 428.21 309.77&#10;  L 433.40 318.05&#10;  A 0.52 0.51 72.3 0 0 433.85 318.29&#10;  Q 459.65 318.05 474.91 338.10&#10;  A 0.43 0.43 0.0 0 1 474.39 338.75&#10;  Z&#10;  M 302.48 315.44&#10;  C 252.42 303.34 209.14 350.65 227.53 399.58&#10;  A 0.63 0.62 -16.7 0 0 228.25 399.96&#10;  Q 264.67 391.01 299.69 383.85&#10;  A 0.61 0.60 72.4 0 0 300.12 383.01&#10;  Q 285.50 348.98 302.74 316.02&#10;  A 0.41 0.40 -69.4 0 0 302.48 315.44&#10;  Z&#10;  M 603.09 387.62&#10;  Q 540.84 380.45 479.00 377.77&#10;  Q 456.06 376.77 437.92 377.36&#10;  A 1.05 1.03 -77.3 0 0 437.03 377.93&#10;  C 424.78 402.55 402.75 419.12 375.70 422.69&#10;  C 347.55 426.41 320.57 414.06 304.44 390.91&#10;  A 0.98 0.98 0.0 0 0 303.44 390.51&#10;  Q 217.34 408.26 133.06 433.46&#10;  A 0.46 0.46 0.0 0 0 132.80 434.13&#10;  L 179.13 515.91&#10;  A 0.69 0.67 66.7 0 0 179.91 516.23&#10;  Q 232.83 501.23 287.74 491.72&#10;  Q 432.00 466.73 578.35 476.08&#10;  A 0.34 0.34 0.0 0 0 578.69 475.83&#10;  L 603.51 388.25&#10;  A 0.50 0.49 -79.1 0 0 603.09 387.62&#10;  Z&#10;  M 548.76 534.52&#10;  L 500.74 485.52&#10;  A 1.82 1.80 -22.9 0 0 499.37 484.97&#10;  L 484.75 485.40&#10;  A 0.48 0.48 0.0 0 0 484.42 486.22&#10;  L 543.76 548.10&#10;  A 0.33 0.33 0.0 0 0 544.31 547.99&#10;  Q 548.42 537.45 559.08 533.94&#10;  A 0.27 0.27 0.0 0 0 559.19 533.49&#10;  L 512.58 485.91&#10;  A 2.75 2.73 -23.2 0 0 510.54 485.10&#10;  L 506.80 485.21&#10;  A 0.26 0.26 0.0 0 0 506.62 485.66&#10;  L 552.27 532.25&#10;  A 0.11 0.11 0.0 0 1 552.26 532.41&#10;  L 549.24 534.57&#10;  A 0.37 0.37 0.0 0 1 548.76 534.52&#10;  Z&#10;  M 377.58 546.20&#10;  C 376.36 550.95 376.54 555.51 380.17 559.10&#10;  C 383.87 562.75 389.54 562.30 393.59 559.29&#10;  Q 398.93 555.34 402.75 549.48&#10;  A 0.44 0.44 0.0 0 1 403.55 549.72&#10;  C 403.58 559.14 411.97 563.93 420.46 561.17&#10;  C 427.85 558.76 433.50 551.67 437.38 544.65&#10;  C 441.89 536.47 444.40 523.43 436.00 516.99&#10;  A 0.81 0.81 0.0 0 1 435.85 515.85&#10;  C 438.53 512.42 441.23 507.51 439.72 503.26&#10;  C 438.29 499.22 433.48 498.20 430.12 500.62&#10;  Q 426.48 503.24 424.40 505.91&#10;  Q 414.88 518.11 407.08 535.24&#10;  A 10.75 10.67 76.4 0 1 405.76 537.42&#10;  C 402.87 541.11 393.74 551.68 389.58 552.22&#10;  A 1.21 1.21 0.0 0 1 388.25 550.77&#10;  Q 389.32 545.75 392.75 540.76&#10;  Q 400.04 530.18 400.09 530.10&#10;  Q 402.93 526.10 404.34 521.86&#10;  C 405.19 519.33 404.50 516.09 401.45 515.68&#10;  C 397.26 515.12 393.81 517.49 391.13 520.64&#10;  C 382.32 531.01 374.84 540.26 366.28 547.77&#10;  Q 364.80 549.07 363.14 549.34&#10;  A 0.94 0.93 3.2 0 1 362.09 548.17&#10;  Q 362.96 545.01 364.74 542.00&#10;  Q 370.12 532.94 376.81 526.24&#10;  C 379.82 523.23 381.90 520.22 378.94 516.81&#10;  C 372.16 509.00 359.63 527.83 356.97 532.47&#10;  Q 354.17 537.36 351.02 541.17&#10;  C 348.25 544.52 342.85 551.38 339.78 552.08&#10;  A 1.37 1.37 0.0 0 1 338.10 550.60&#10;  Q 338.51 546.86 340.49 542.46&#10;  Q 343.51 535.78 347.38 528.91&#10;  A 5.24 5.17 -6.0 0 1 348.53 527.51&#10;  C 353.69 523.08 367.10 509.14 362.48 502.01&#10;  C 360.45 498.88 356.74 498.62 353.74 500.52&#10;  C 348.30 503.96 344.28 510.38 341.04 516.04&#10;  Q 335.22 526.22 331.20 535.79&#10;  A 7.59 7.38 -12.8 0 1 329.75 538.02&#10;  Q 321.07 547.30 309.48 550.73&#10;  C 300.60 553.35 294.95 549.06 297.46 539.69&#10;  C 299.97 530.32 307.84 518.81 316.82 514.59&#10;  Q 318.98 513.57 320.42 513.79&#10;  A 2.62 2.44 -83.8 0 1 322.47 516.54&#10;  C 322.20 520.46 320.24 523.80 317.92 526.73&#10;  C 316.61 528.39 316.13 530.25 317.70 531.79&#10;  C 318.82 532.88 321.25 532.85 322.43 532.16&#10;  C 328.64 528.57 332.93 521.80 332.71 514.43&#10;  C 332.37 503.38 320.65 500.57 312.14 503.99&#10;  C 300.45 508.67 292.21 519.67 287.52 531.26&#10;  C 282.97 542.51 284.53 558.71 298.88 561.62&#10;  C 309.46 563.77 319.38 557.56 326.90 550.17&#10;  A 0.30 0.30 0.0 0 1 327.41 550.39&#10;  Q 327.43 557.48 331.04 560.18&#10;  C 337.94 565.35 345.05 559.45 349.31 554.13&#10;  A 0.30 0.30 0.0 0 1 349.84 554.25&#10;  Q 351.04 559.33 355.36 561.33&#10;  C 364.73 565.65 373.37 552.81 377.02 545.98&#10;  A 0.30 0.30 0.0 0 1 377.58 546.20&#10;  Z&#10;  M 218.39 519.35&#10;  Q 189.13 526.48 183.87 527.86&#10;  Q 180.07 528.86 179.48 529.47&#10;  Q 171.27 538.08 164.10 545.55&#10;  A 0.32 0.32 0.0 0 0 164.23 546.07&#10;  Q 175.02 549.69 179.11 560.23&#10;  A 0.32 0.32 0.0 0 0 179.65 560.34&#10;  L 218.60 519.72&#10;  A 0.22 0.22 0.0 0 0 218.39 519.35&#10;  Z&#10;  M 231.63 541.17&#10;  A 0.31 0.31 0.0 0 0 231.92 541.63&#10;  L 273.21 538.90&#10;  A 0.31 0.31 0.0 0 0 273.45 538.43&#10;  L 271.18 534.81&#10;  A 0.31 0.31 0.0 0 0 270.95 534.67&#10;  L 237.25 531.80&#10;  A 0.31 0.31 0.0 0 0 236.95 531.95&#10;  L 231.63 541.17&#10;  Z&#10;  M 494.38 531.99&#10;  A 0.42 0.42 0.0 0 0 494.00 531.82&#10;  L 460.90 534.64&#10;  A 0.42 0.42 0.0 0 0 460.63 534.76&#10;  L 457.46 538.07&#10;  A 0.42 0.42 0.0 0 0 457.74 538.78&#10;  L 500.46 541.65&#10;  A 0.42 0.42 0.0 0 0 500.83 540.99&#10;  L 494.38 531.99&#10;  Z&#10;  M 566.7066 540.5895&#10;  A 11.01 7.17 -43.8 0 0 553.7973 543.0350&#10;  A 11.01 7.17 -43.8 0 0 550.8134 555.8305&#10;  A 11.01 7.17 -43.8 0 0 563.7227 553.3850&#10;  A 11.01 7.17 -43.8 0 0 566.7066 540.5895&#10;  Z&#10;  M 172.6254 568.0628&#10;  A 10.99 7.16 43.7 0 0 169.6267 555.2936&#10;  A 10.99 7.16 43.7 0 0 156.7346 552.8772&#10;  A 10.99 7.16 43.7 0 0 159.7333 565.6464&#10;  A 10.99 7.16 43.7 0 0 172.6254 568.0628&#10;  Z"/>
<path fill="#000000" d="&#10;  M 551.21 155.77&#10;  A 0.25 0.25 0.0 0 1 551.19 155.42&#10;  L 554.15 152.24&#10;  A 5.87 5.61 -47.0 0 1 562.26 151.78&#10;  L 562.77 152.25&#10;  A 5.87 5.61 -47.0 0 1 562.87 160.37&#10;  L 559.91 163.55&#10;  A 0.25 0.25 0.0 0 1 559.56 163.56&#10;  L 551.21 155.77&#10;  Z"/>
<path fill="#000000" d="&#10;  M 176.14 163.71&#10;  A 0.25 0.25 0.0 0 1 175.79 163.70&#10;  L 172.85 160.56&#10;  A 5.92 5.81 46.9 0 1 173.04 152.26&#10;  L 173.28 152.04&#10;  A 5.92 5.81 46.9 0 1 181.56 152.40&#10;  L 184.51 155.54&#10;  A 0.25 0.25 0.0 0 1 184.50 155.90&#10;  L 176.14 163.71&#10;  Z"/>
<path fill="#000000" d="&#10;  M 548.91 164.21&#10;  L 548.72 164.03&#10;  A 0.31 0.31 0.0 0 0 548.28 164.03&#10;  L 417.20 295.94&#10;  A 0.77 0.76 44.2 0 1 416.12 295.95&#10;  L 414.15 294.07&#10;  A 0.59 0.58 -46.1 0 1 414.14 293.25&#10;  L 547.68 158.87&#10;  A 0.81 0.81 0.0 0 1 548.69 158.76&#10;  Q 553.34 161.74 556.62 166.11&#10;  A 0.62 0.62 0.0 0 1 556.58 166.91&#10;  L 425.03 304.14&#10;  A 0.22 0.21 -44.1 0 1 424.72 304.14&#10;  L 418.49 297.96&#10;  A 0.42 0.42 0.0 0 1 418.49 297.36&#10;  L 548.91 164.38&#10;  A 0.12 0.11 -46.6 0 0 548.91 164.21&#10;  Z"/>
<path fill="#000000" d="&#10;  M 186.85 164.39&#10;  A 0.12 0.11 46.6 0 0 186.85 164.56&#10;  L 317.13 297.43&#10;  A 0.42 0.42 0.0 0 1 317.13 298.03&#10;  L 310.90 304.20&#10;  A 0.22 0.21 44.1 0 1 310.59 304.20&#10;  L 179.19 167.08&#10;  A 0.62 0.61 -48.1 0 1 179.15 166.28&#10;  Q 182.42 161.92 187.07 158.94&#10;  A 0.81 0.81 0.0 0 1 188.08 159.05&#10;  L 321.47 293.33&#10;  A 0.59 0.58 46.1 0 1 321.46 294.15&#10;  L 319.49 296.02&#10;  A 0.77 0.76 -44.2 0 1 318.41 296.01&#10;  L 187.48 164.21&#10;  A 0.31 0.31 0.0 0 0 187.04 164.21&#10;  L 186.85 164.39&#10;  Z"/>
<path fill="#000000" d="&#10;  M 377.73 227.68&#10;  L 404.61 228.41&#10;  A 0.33 0.33 0.0 0 1 404.81 229.00&#10;  L 383.48 245.38&#10;  A 0.33 0.33 0.0 0 0 383.36 245.74&#10;  L 390.99 271.53&#10;  A 0.33 0.33 0.0 0 1 390.48 271.90&#10;  L 368.31 256.68&#10;  A 0.33 0.33 0.0 0 0 367.93 256.68&#10;  L 345.76 271.90&#10;  A 0.33 0.33 0.0 0 1 345.25 271.53&#10;  L 352.88 245.74&#10;  A 0.33 0.33 0.0 0 0 352.76 245.38&#10;  L 331.43 229.00&#10;  A 0.33 0.33 0.0 0 1 331.63 228.41&#10;  L 358.51 227.68&#10;  A 0.33 0.33 0.0 0 0 358.81 227.46&#10;  L 367.81 202.12&#10;  A 0.33 0.33 0.0 0 1 368.43 202.12&#10;  L 377.43 227.46&#10;  A 0.33 0.33 0.0 0 0 377.73 227.68&#10;  Z"/>
<path fill="#000000" d="&#10;  M 430.71 352.13&#10;  A 63.18 63.18 0.0 0 1 367.53 415.31&#10;  A 63.18 63.18 0.0 0 1 304.35 352.13&#10;  A 63.18 63.18 0.0 0 1 367.53 288.95&#10;  A 63.18 63.18 0.0 0 1 430.71 352.13&#10;  Z&#10;  M 382.7199 300.1617&#10;  A 2.70 2.33 -0.6 0 0 379.9956 297.8601&#10;  A 2.70 2.33 -0.6 0 0 377.3201 300.2183&#10;  A 2.70 2.33 -0.6 0 0 380.0444 302.5199&#10;  A 2.70 2.33 -0.6 0 0 382.7199 300.1617&#10;  Z&#10;  M 347.43 310.19&#10;  A 0.31 0.31 0.0 0 1 347.34 309.63&#10;  Q 357.58 303.04 369.35 299.85&#10;  A 0.72 0.72 0.0 0 0 369.86 299.00&#10;  Q 369.84 298.91 369.64 298.69&#10;  A 0.61 0.58 67.0 0 0 369.21 298.50&#10;  Q 346.47 298.68 331.46 312.55&#10;  Q 313.64 329.03 313.88 353.97&#10;  A 0.65 0.64 -16.7 0 0 314.87 354.50&#10;  Q 315.06 354.38 315.18 353.94&#10;  Q 318.95 340.44 326.14 330.33&#10;  A 0.36 0.36 0.0 0 1 326.76 330.38&#10;  Q 328.82 334.56 333.74 334.78&#10;  C 340.96 335.11 347.50 330.21 350.99 324.23&#10;  C 353.69 319.60 354.11 312.01 347.43 310.19&#10;  Z&#10;  M 366.81 320.74&#10;  A 29.75 28.71 51.5 0 0 362.72 326.43&#10;  A 29.54 28.53 50.5 0 0 364.54 356.96&#10;  A 29.56 28.53 51.9 0 0 377.69 367.81&#10;  A 29.58 28.57 50.5 0 0 397.25 369.04&#10;  A 29.55 28.53 48.8 0 0 412.57 357.68&#10;  A 29.50 28.49 50.3 0 0 417.11 339.88&#10;  A 29.55 28.53 50.5 0 0 399.78 314.74&#10;  A 29.56 28.54 50.3 0 0 369.75 318.00&#10;  A 29.21 28.16 57.2 0 0 366.81 320.74&#10;  Z"/>
<ellipse fill="#ffffff" cx="0.00" cy="0.00" transform="translate(380.02,300.19) rotate(-0.6)" rx="2.70" ry="2.33"/>
<path fill="#ffffff" d="&#10;  M 347.43 310.19&#10;  C 354.11 312.01 353.69 319.60 350.99 324.23&#10;  C 347.50 330.21 340.96 335.11 333.74 334.78&#10;  Q 328.82 334.56 326.76 330.38&#10;  A 0.36 0.36 0.0 0 0 326.14 330.33&#10;  Q 318.95 340.44 315.18 353.94&#10;  Q 315.06 354.38 314.87 354.50&#10;  A 0.65 0.64 -16.7 0 1 313.88 353.97&#10;  Q 313.64 329.03 331.46 312.55&#10;  Q 346.47 298.68 369.21 298.50&#10;  A 0.61 0.58 67.0 0 1 369.64 298.69&#10;  Q 369.84 298.91 369.86 299.00&#10;  A 0.72 0.72 0.0 0 1 369.35 299.85&#10;  Q 357.58 303.04 347.34 309.63&#10;  A 0.31 0.31 0.0 0 0 347.43 310.19&#10;  Z"/>
<path fill="#d30f02" d="&#10;  M 474.39 338.75&#10;  A 0.43 0.43 0.0 0 0 474.91 338.10&#10;  Q 459.65 318.05 433.85 318.29&#10;  A 0.52 0.51 72.3 0 1 433.40 318.05&#10;  L 428.21 309.77&#10;  A 0.19 0.19 0.0 0 1 428.37 309.48&#10;  Q 435.58 309.44 436.16 309.50&#10;  Q 461.37 312.23 477.36 329.43&#10;  Q 493.24 346.52 494.46 370.15&#10;  A 0.80 0.80 0.0 0 1 493.62 370.99&#10;  Q 465.21 369.49 439.91 369.84&#10;  A 0.35 0.35 0.0 0 1 439.56 369.41&#10;  C 442.90 355.31 442.16 339.91 436.94 326.35&#10;  A 0.55 0.54 -8.0 0 1 437.50 325.61&#10;  Q 453.58 327.10 467.47 334.53&#10;  C 470.08 335.93 472.11 337.69 474.39 338.75&#10;  Z"/>
<path fill="#ffffff" d="&#10;  M 412.57 357.68&#10;  Q 410.07 358.15 406.13 360.63&#10;  Q 402.12 363.15 396.25 363.93&#10;  C 381.27 365.91 366.91 354.69 364.10 339.84&#10;  Q 363.82 338.36 364.12 335.70&#10;  Q 364.31 333.97 364.10 331.56&#10;  A 3.03 2.95 50.9 0 1 364.19 330.56&#10;  L 366.81 320.74&#10;  A 29.21 28.16 57.2 0 1 369.75 318.00&#10;  A 29.56 28.54 50.3 0 1 399.78 314.74&#10;  A 29.55 28.53 50.5 0 1 417.11 339.88&#10;  A 29.50 28.49 50.3 0 1 412.57 357.68&#10;  Z&#10;  M 400.22 335.19&#10;  Q 403.90 330.77 401.30 325.70&#10;  C 398.02 319.30 389.19 318.98 383.55 321.82&#10;  C 377.65 324.78 375.89 331.17 380.20 336.54&#10;  C 380.70 337.17 381.90 337.71 382.51 338.30&#10;  A 0.60 0.60 0.0 0 1 382.48 339.19&#10;  C 376.16 344.65 379.69 354.50 387.62 356.13&#10;  Q 395.27 357.70 401.66 353.90&#10;  C 407.36 350.51 408.40 342.58 403.42 338.15&#10;  C 402.42 337.26 400.95 336.75 400.31 336.21&#10;  A 0.73 0.72 40.2 0 1 400.22 335.19&#10;  Z"/>
<path fill="#0d3d6e" d="&#10;  M 302.48 315.44&#10;  A 0.41 0.40 -69.4 0 1 302.74 316.02&#10;  Q 285.50 348.98 300.12 383.01&#10;  A 0.61 0.60 72.4 0 1 299.69 383.85&#10;  Q 264.67 391.01 228.25 399.96&#10;  A 0.63 0.62 -16.7 0 1 227.53 399.58&#10;  C 209.14 350.65 252.42 303.34 302.48 315.44&#10;  Z&#10;  M 248.02 338.53&#10;  C 238.67 347.84 234.12 359.52 233.84 372.99&#10;  Q 233.83 373.82 234.06 374.19&#10;  A 0.46 0.46 0.0 0 0 234.88 374.09&#10;  Q 240.41 356.78 253.35 343.88&#10;  Q 266.30 330.99 283.63 325.52&#10;  A 0.46 0.46 0.0 0 0 283.73 324.70&#10;  Q 283.36 324.47 282.54 324.48&#10;  C 269.07 324.70 257.36 329.22 248.02 338.53&#10;  Z"/>
<path fill="#000000" d="&#10;  M 400.31 336.21&#10;  C 400.95 336.75 402.42 337.26 403.42 338.15&#10;  C 408.40 342.58 407.36 350.51 401.66 353.90&#10;  Q 395.27 357.70 387.62 356.13&#10;  C 379.69 354.50 376.16 344.65 382.48 339.19&#10;  A 0.60 0.60 0.0 0 0 382.51 338.30&#10;  C 381.90 337.71 380.70 337.17 380.20 336.54&#10;  C 375.89 331.17 377.65 324.78 383.55 321.82&#10;  C 389.19 318.98 398.02 319.30 401.30 325.70&#10;  Q 403.90 330.77 400.22 335.19&#10;  A 0.73 0.72 40.2 0 0 400.31 336.21&#10;  Z&#10;  M 394.7894 330.8429&#10;  A 4.64 4.28 0.9 0 0 390.2172 326.4905&#10;  A 4.64 4.28 0.9 0 0 385.5106 330.6971&#10;  A 4.64 4.28 0.9 0 0 390.0828 335.0495&#10;  A 4.64 4.28 0.9 0 0 394.7894 330.8429&#10;  Z&#10;  M 397.7916 344.7776&#10;  A 5.08 4.57 -3.3 0 0 392.4569 340.5076&#10;  A 5.08 4.57 -3.3 0 0 387.6484 345.3624&#10;  A 5.08 4.57 -3.3 0 0 392.9831 349.6324&#10;  A 5.08 4.57 -3.3 0 0 397.7916 344.7776&#10;  Z"/>
<path fill="#b3b3b3" d="&#10;  M 366.81 320.74&#10;  L 364.19 330.56&#10;  A 3.03 2.95 50.9 0 0 364.10 331.56&#10;  Q 364.31 333.97 364.12 335.70&#10;  Q 363.82 338.36 364.10 339.84&#10;  C 366.91 354.69 381.27 365.91 396.25 363.93&#10;  Q 402.12 363.15 406.13 360.63&#10;  Q 410.07 358.15 412.57 357.68&#10;  A 29.55 28.53 48.8 0 1 397.25 369.04&#10;  A 29.58 28.57 50.5 0 1 377.69 367.81&#10;  A 29.56 28.53 51.9 0 1 364.54 356.96&#10;  A 29.54 28.53 50.5 0 1 362.72 326.43&#10;  A 29.75 28.71 51.5 0 1 366.81 320.74&#10;  Z"/>
<path fill="#ffffff" d="&#10;  M 253.35 343.88&#10;  Q 240.41 356.78 234.88 374.09&#10;  A 0.46 0.46 0.0 0 1 234.06 374.19&#10;  Q 233.83 373.82 233.84 372.99&#10;  C 234.12 359.52 238.67 347.84 248.02 338.53&#10;  C 257.36 329.22 269.07 324.70 282.54 324.48&#10;  Q 283.36 324.47 283.73 324.70&#10;  A 0.46 0.46 0.0 0 1 283.63 325.52&#10;  Q 266.30 330.99 253.35 343.88&#10;  Z"/>
<ellipse fill="#ffffff" cx="0.00" cy="0.00" transform="translate(390.15,330.77) rotate(0.9)" rx="4.64" ry="4.28"/>
<ellipse fill="#ffffff" cx="0.00" cy="0.00" transform="translate(392.72,345.07) rotate(-3.3)" rx="5.08" ry="4.57"/>
<path fill="#000000" d="&#10;  M 603.09 387.62&#10;  A 0.50 0.49 -79.1 0 1 603.51 388.25&#10;  L 578.69 475.83&#10;  A 0.34 0.34 0.0 0 1 578.35 476.08&#10;  Q 432.00 466.73 287.74 491.72&#10;  Q 232.83 501.23 179.91 516.23&#10;  A 0.69 0.67 66.7 0 1 179.13 515.91&#10;  L 132.80 434.13&#10;  A 0.46 0.46 0.0 0 1 133.06 433.46&#10;  Q 217.34 408.26 303.44 390.51&#10;  A 0.98 0.98 0.0 0 1 304.44 390.91&#10;  C 320.57 414.06 347.55 426.41 375.70 422.69&#10;  C 402.75 419.12 424.78 402.55 437.03 377.93&#10;  A 1.05 1.03 -77.3 0 1 437.92 377.36&#10;  Q 456.06 376.77 479.00 377.77&#10;  Q 540.84 380.45 603.09 387.62&#10;  Z&#10;  M 512.16 400.80&#10;  L 511.15 453.61&#10;  A 0.57 0.57 0.0 0 0 511.71 454.20&#10;  L 530.81 454.56&#10;  A 27.22 26.90 1.1 0 0 558.54 428.19&#10;  L 558.55 428.03&#10;  A 27.22 26.90 1.1 0 0 531.85 400.61&#10;  L 512.74 400.25&#10;  A 0.57 0.57 0.0 0 0 512.16 400.80&#10;  Z&#10;  M 503.87 453.54&#10;  L 492.60 435.57&#10;  A 0.79 0.78 -42.1 0 1 492.65 434.66&#10;  Q 502.13 423.09 495.29 410.79&#10;  C 492.23 405.29 486.07 401.30 480.17 401.10&#10;  Q 476.24 400.97 455.54 401.66&#10;  A 0.54 0.54 0.0 0 0 455.02 402.22&#10;  L 456.60 455.18&#10;  A 0.37 0.37 0.0 0 0 456.99 455.54&#10;  L 470.26 455.15&#10;  A 0.55 0.55 0.0 0 0 470.79 454.58&#10;  L 470.39 441.30&#10;  A 0.53 0.53 0.0 0 1 470.90 440.76&#10;  L 478.48 440.53&#10;  A 0.98 0.96 -16.4 0 1 479.32 440.98&#10;  L 487.58 454.16&#10;  A 0.95 0.95 0.0 0 0 488.42 454.61&#10;  L 503.54 454.16&#10;  A 0.41 0.40 73.2 0 0 503.87 453.54&#10;  Z&#10;  M 393.24 459.75&#10;  L 406.38 458.88&#10;  A 0.79 0.79 0.0 0 0 407.05 458.38&#10;  L 409.48 451.98&#10;  A 0.87 0.86 -81.3 0 1 410.22 451.43&#10;  L 430.91 450.06&#10;  A 1.09 1.08 73.0 0 1 431.93 450.61&#10;  L 435.04 456.11&#10;  A 0.99 0.99 0.0 0 0 435.98 456.61&#10;  L 448.94 455.76&#10;  A 0.46 0.46 0.0 0 0 449.31 455.07&#10;  L 422.34 407.46&#10;  A 0.32 0.32 0.0 0 0 421.84 407.40&#10;  Q 415.90 413.67 409.38 418.16&#10;  A 4.21 4.18 83.4 0 0 407.80 420.17&#10;  L 392.92 459.32&#10;  A 0.32 0.32 0.0 0 0 393.24 459.75&#10;  Z&#10;  M 321.93 416.14&#10;  L 328.21 466.60&#10;  A 0.55 0.55 0.0 0 0 328.83 467.08&#10;  L 361.28 463.04&#10;  A 0.35 0.34 83.4 0 0 361.58 462.65&#10;  L 359.93 449.40&#10;  A 0.55 0.55 0.0 0 0 359.31 448.92&#10;  L 341.31 451.16&#10;  A 0.69 0.68 -7.0 0 1 340.54 450.56&#10;  L 337.39 425.29&#10;  A 1.17 1.17 0.0 0 0 336.70 424.36&#10;  Q 330.31 421.56 322.48 415.82&#10;  A 0.35 0.35 0.0 0 0 321.93 416.14&#10;  Z&#10;  M 291.35 418.36&#10;  A 0.35 0.35 0.0 0 0 290.95 418.06&#10;  L 277.60 420.04&#10;  A 0.35 0.35 0.0 0 0 277.30 420.44&#10;  L 285.07 473.15&#10;  A 0.35 0.35 0.0 0 0 285.47 473.45&#10;  L 318.01 468.65&#10;  A 0.35 0.35 0.0 0 0 318.31 468.25&#10;  L 316.33 454.83&#10;  A 0.35 0.35 0.0 0 0 315.93 454.53&#10;  L 297.45 457.25&#10;  A 0.35 0.35 0.0 0 1 297.05 456.95&#10;  L 291.35 418.36&#10;  Z&#10;  M 264.8509 422.9454&#10;  A 0.58 0.58 0.0 0 0 264.1749 422.4808&#10;  L 251.3336 424.8608&#10;  A 0.58 0.58 0.0 0 0 250.8690 425.5368&#10;  L 260.4691 477.3346&#10;  A 0.58 0.58 0.0 0 0 261.1451 477.7992&#10;  L 273.9864 475.4192&#10;  A 0.58 0.58 0.0 0 0 274.4510 474.7432&#10;  L 264.8509 422.9454&#10;  Z&#10;  M 382.2259 426.7375&#10;  A 0.26 0.26 0.0 0 0 381.9409 426.5051&#10;  L 368.3110 427.8896&#10;  A 0.26 0.26 0.0 0 0 368.0787 428.1745&#10;  L 371.4741 461.6025&#10;  A 0.26 0.26 0.0 0 0 371.7591 461.8349&#10;  L 385.3890 460.4504&#10;  A 0.26 0.26 0.0 0 0 385.6213 460.1655&#10;  L 382.2259 426.7375&#10;  Z&#10;  M 192.72 436.80&#10;  A 0.26 0.26 0.0 0 0 192.64 437.28&#10;  L 200.45 441.79&#10;  A 1.50 1.47 9.1 0 1 201.17 442.76&#10;  L 210.74 487.42&#10;  A 0.46 0.46 0.0 0 0 211.29 487.77&#10;  Q 235.26 482.66 236.80 482.31&#10;  C 250.95 479.06 254.06 459.80 240.88 453.04&#10;  A 0.55 0.55 0.0 0 1 240.63 452.31&#10;  C 243.15 447.02 242.35 440.44 238.58 435.99&#10;  Q 231.97 428.20 221.51 430.54&#10;  Q 204.33 434.38 192.72 436.80&#10;  Z"/>
<path fill="#ffffff" d="&#10;  M 512.16 400.80&#10;  A 0.57 0.57 0.0 0 1 512.74 400.25&#10;  L 531.85 400.61&#10;  A 27.22 26.90 1.1 0 1 558.55 428.03&#10;  L 558.54 428.19&#10;  A 27.22 26.90 1.1 0 1 530.81 454.56&#10;  L 511.71 454.20&#10;  A 0.57 0.57 0.0 0 1 511.15 453.61&#10;  L 512.16 400.80&#10;  Z&#10;  M 526.01 415.26&#10;  L 525.49 439.85&#10;  A 0.44 0.44 0.0 0 0 525.93 440.30&#10;  L 531.68 440.42&#10;  A 12.54 12.34 -88.8 0 0 544.28 428.14&#10;  L 544.29 427.74&#10;  A 12.54 12.34 -88.8 0 0 532.22 414.95&#10;  L 526.46 414.83&#10;  A 0.44 0.44 0.0 0 0 526.01 415.26&#10;  Z"/>
<path fill="#ffffff" d="&#10;  M 503.54 454.16&#10;  L 488.42 454.61&#10;  A 0.95 0.95 0.0 0 1 487.58 454.16&#10;  L 479.32 440.98&#10;  A 0.98 0.96 -16.4 0 0 478.48 440.53&#10;  L 470.90 440.76&#10;  A 0.53 0.53 0.0 0 0 470.39 441.30&#10;  L 470.79 454.58&#10;  A 0.55 0.55 0.0 0 1 470.26 455.15&#10;  L 456.99 455.54&#10;  A 0.37 0.37 0.0 0 1 456.60 455.18&#10;  L 455.02 402.22&#10;  A 0.54 0.54 0.0 0 1 455.54 401.66&#10;  Q 476.24 400.97 480.17 401.10&#10;  C 486.07 401.30 492.23 405.29 495.29 410.79&#10;  Q 502.13 423.09 492.65 434.66&#10;  A 0.79 0.78 -42.1 0 0 492.60 435.57&#10;  L 503.87 453.54&#10;  A 0.41 0.40 73.2 0 1 503.54 454.16&#10;  Z&#10;  M 469.59 413.56&#10;  L 469.92 428.14&#10;  A 0.42 0.42 0.0 0 0 470.35 428.55&#10;  L 477.97 428.37&#10;  A 8.45 7.18 -1.3 0 0 486.26 421.00&#10;  L 486.24 419.94&#10;  A 8.45 7.18 -1.3 0 0 477.63 412.96&#10;  L 470.00 413.13&#10;  A 0.42 0.42 0.0 0 0 469.59 413.56&#10;  Z"/>
<path fill="#ffffff" d="&#10;  M 393.24 459.75&#10;  A 0.32 0.32 0.0 0 1 392.92 459.32&#10;  L 407.80 420.17&#10;  A 4.21 4.18 83.4 0 1 409.38 418.16&#10;  Q 415.90 413.67 421.84 407.40&#10;  A 0.32 0.32 0.0 0 1 422.34 407.46&#10;  L 449.31 455.07&#10;  A 0.46 0.46 0.0 0 1 448.94 455.76&#10;  L 435.98 456.61&#10;  A 0.99 0.99 0.0 0 1 435.04 456.11&#10;  L 431.93 450.61&#10;  A 1.09 1.08 73.0 0 0 430.91 450.06&#10;  L 410.22 451.43&#10;  A 0.87 0.86 -81.3 0 0 409.48 451.98&#10;  L 407.05 458.38&#10;  A 0.79 0.79 0.0 0 1 406.38 458.88&#10;  L 393.24 459.75&#10;  Z&#10;  M 414.51 438.67&#10;  A 0.33 0.33 0.0 0 0 414.84 439.11&#10;  L 424.60 438.41&#10;  A 0.33 0.33 0.0 0 0 424.87 437.93&#10;  L 419.23 427.68&#10;  A 0.33 0.33 0.0 0 0 418.63 427.72&#10;  L 414.51 438.67&#10;  Z"/>
<path fill="#000000" d="&#10;  M 469.59 413.56&#10;  A 0.42 0.42 0.0 0 1 470.00 413.13&#10;  L 477.63 412.96&#10;  A 8.45 7.18 -1.3 0 1 486.24 419.94&#10;  L 486.26 421.00&#10;  A 8.45 7.18 -1.3 0 1 477.97 428.37&#10;  L 470.35 428.55&#10;  A 0.42 0.42 0.0 0 1 469.92 428.14&#10;  L 469.59 413.56&#10;  Z"/>
<path fill="#000000" d="&#10;  M 526.01 415.26&#10;  A 0.44 0.44 0.0 0 1 526.46 414.83&#10;  L 532.22 414.95&#10;  A 12.54 12.34 -88.8 0 1 544.29 427.74&#10;  L 544.28 428.14&#10;  A 12.54 12.34 -88.8 0 1 531.68 440.42&#10;  L 525.93 440.30&#10;  A 0.44 0.44 0.0 0 1 525.49 439.85&#10;  L 526.01 415.26&#10;  Z"/>
<path fill="#ffffff" d="&#10;  M 322.48 415.82&#10;  Q 330.31 421.56 336.70 424.36&#10;  A 1.17 1.17 0.0 0 1 337.39 425.29&#10;  L 340.54 450.56&#10;  A 0.69 0.68 -7.0 0 0 341.31 451.16&#10;  L 359.31 448.92&#10;  A 0.55 0.55 0.0 0 1 359.93 449.40&#10;  L 361.58 462.65&#10;  A 0.35 0.34 83.4 0 1 361.28 463.04&#10;  L 328.83 467.08&#10;  A 0.55 0.55 0.0 0 1 328.21 466.60&#10;  L 321.93 416.14&#10;  A 0.35 0.35 0.0 0 1 322.48 415.82&#10;  Z"/>
<path fill="#ffffff" d="&#10;  M 291.35 418.36&#10;  L 297.05 456.95&#10;  A 0.35 0.35 0.0 0 0 297.45 457.25&#10;  L 315.93 454.53&#10;  A 0.35 0.35 0.0 0 1 316.33 454.83&#10;  L 318.31 468.25&#10;  A 0.35 0.35 0.0 0 1 318.01 468.65&#10;  L 285.47 473.45&#10;  A 0.35 0.35 0.0 0 1 285.07 473.15&#10;  L 277.30 420.44&#10;  A 0.35 0.35 0.0 0 1 277.60 420.04&#10;  L 290.95 418.06&#10;  A 0.35 0.35 0.0 0 1 291.35 418.36&#10;  Z"/>
<rect fill="#ffffff" x="-7.11" y="-26.92" transform="translate(262.66,450.14) rotate(-10.5)" width="14.22" height="53.84" rx="0.58"/>
<rect fill="#ffffff" x="-7.11" y="-17.06" transform="translate(376.85,444.17) rotate(-5.8)" width="14.22" height="34.12" rx="0.26"/>
<path fill="#000000" d="&#10;  M 414.51 438.67&#10;  L 418.63 427.72&#10;  A 0.33 0.33 0.0 0 1 419.23 427.68&#10;  L 424.87 437.93&#10;  A 0.33 0.33 0.0 0 1 424.60 438.41&#10;  L 414.84 439.11&#10;  A 0.33 0.33 0.0 0 1 414.51 438.67&#10;  Z"/>
<path fill="#ffffff" d="&#10;  M 192.72 436.80&#10;  Q 204.33 434.38 221.51 430.54&#10;  Q 231.97 428.20 238.58 435.99&#10;  C 242.35 440.44 243.15 447.02 240.63 452.31&#10;  A 0.55 0.55 0.0 0 0 240.88 453.04&#10;  C 254.06 459.80 250.95 479.06 236.80 482.31&#10;  Q 235.26 482.66 211.29 487.77&#10;  A 0.46 0.46 0.0 0 1 210.74 487.42&#10;  L 201.17 442.76&#10;  A 1.50 1.47 9.1 0 0 200.45 441.79&#10;  L 192.64 437.28&#10;  A 0.26 0.26 0.0 0 1 192.72 436.80&#10;  Z&#10;  M 216.02 444.24&#10;  L 217.73 452.32&#10;  A 0.53 0.53 0.0 0 0 218.36 452.73&#10;  L 223.99 451.53&#10;  A 5.16 4.43 -12.0 0 0 228.11 446.13&#10;  L 228.02 445.68&#10;  A 5.16 4.43 -12.0 0 0 222.05 442.42&#10;  L 216.42 443.61&#10;  A 0.53 0.53 0.0 0 0 216.02 444.24&#10;  Z&#10;  M 220.49 465.12&#10;  L 222.10 472.77&#10;  A 0.80 0.80 0.0 0 0 223.05 473.39&#10;  L 230.32 471.85&#10;  A 5.85 4.26 -11.9 0 0 235.16 466.48&#10;  L 234.98 465.60&#10;  A 5.85 4.26 -11.9 0 0 228.37 462.64&#10;  L 221.10 464.17&#10;  A 0.80 0.80 0.0 0 0 220.49 465.12&#10;  Z"/>
<path fill="#000000" d="&#10;  M 216.02 444.24&#10;  A 0.53 0.53 0.0 0 1 216.42 443.61&#10;  L 222.05 442.42&#10;  A 5.16 4.43 -12.0 0 1 228.02 445.68&#10;  L 228.11 446.13&#10;  A 5.16 4.43 -12.0 0 1 223.99 451.53&#10;  L 218.36 452.73&#10;  A 0.53 0.53 0.0 0 1 217.73 452.32&#10;  L 216.02 444.24&#10;  Z"/>
<path fill="#000000" d="&#10;  M 220.49 465.12&#10;  A 0.80 0.80 0.0 0 1 221.10 464.17&#10;  L 228.37 462.64&#10;  A 5.85 4.26 -11.9 0 1 234.98 465.60&#10;  L 235.16 466.48&#10;  A 5.85 4.26 -11.9 0 1 230.32 471.85&#10;  L 223.05 473.39&#10;  A 0.80 0.80 0.0 0 1 222.10 472.77&#10;  L 220.49 465.12&#10;  Z"/>
<path fill="#000000" d="&#10;  M 548.76 534.52&#10;  A 0.37 0.37 0.0 0 0 549.24 534.57&#10;  L 552.26 532.41&#10;  A 0.11 0.11 0.0 0 0 552.27 532.25&#10;  L 506.62 485.66&#10;  A 0.26 0.26 0.0 0 1 506.80 485.21&#10;  L 510.54 485.10&#10;  A 2.75 2.73 -23.2 0 1 512.58 485.91&#10;  L 559.19 533.49&#10;  A 0.27 0.27 0.0 0 1 559.08 533.94&#10;  Q 548.42 537.45 544.31 547.99&#10;  A 0.33 0.33 0.0 0 1 543.76 548.10&#10;  L 484.42 486.22&#10;  A 0.48 0.48 0.0 0 1 484.75 485.40&#10;  L 499.37 484.97&#10;  A 1.82 1.80 -22.9 0 1 500.74 485.52&#10;  L 548.76 534.52&#10;  Z"/>
<path fill="#000000" d="&#10;  M 377.58 546.20&#10;  A 0.30 0.30 0.0 0 0 377.02 545.98&#10;  C 373.37 552.81 364.73 565.65 355.36 561.33&#10;  Q 351.04 559.33 349.84 554.25&#10;  A 0.30 0.30 0.0 0 0 349.31 554.13&#10;  C 345.05 559.45 337.94 565.35 331.04 560.18&#10;  Q 327.43 557.48 327.41 550.39&#10;  A 0.30 0.30 0.0 0 0 326.90 550.17&#10;  C 319.38 557.56 309.46 563.77 298.88 561.62&#10;  C 284.53 558.71 282.97 542.51 287.52 531.26&#10;  C 292.21 519.67 300.45 508.67 312.14 503.99&#10;  C 320.65 500.57 332.37 503.38 332.71 514.43&#10;  C 332.93 521.80 328.64 528.57 322.43 532.16&#10;  C 321.25 532.85 318.82 532.88 317.70 531.79&#10;  C 316.13 530.25 316.61 528.39 317.92 526.73&#10;  C 320.24 523.80 322.20 520.46 322.47 516.54&#10;  A 2.62 2.44 -83.8 0 0 320.42 513.79&#10;  Q 318.98 513.57 316.82 514.59&#10;  C 307.84 518.81 299.97 530.32 297.46 539.69&#10;  C 294.95 549.06 300.60 553.35 309.48 550.73&#10;  Q 321.07 547.30 329.75 538.02&#10;  A 7.59 7.38 -12.8 0 0 331.20 535.79&#10;  Q 335.22 526.22 341.04 516.04&#10;  C 344.28 510.38 348.30 503.96 353.74 500.52&#10;  C 356.74 498.62 360.45 498.88 362.48 502.01&#10;  C 367.10 509.14 353.69 523.08 348.53 527.51&#10;  A 5.24 5.17 -6.0 0 0 347.38 528.91&#10;  Q 343.51 535.78 340.49 542.46&#10;  Q 338.51 546.86 338.10 550.60&#10;  A 1.37 1.37 0.0 0 0 339.78 552.08&#10;  C 342.85 551.38 348.25 544.52 351.02 541.17&#10;  Q 354.17 537.36 356.97 532.47&#10;  C 359.63 527.83 372.16 509.00 378.94 516.81&#10;  C 381.90 520.22 379.82 523.23 376.81 526.24&#10;  Q 370.12 532.94 364.74 542.00&#10;  Q 362.96 545.01 362.09 548.17&#10;  A 0.94 0.93 3.2 0 0 363.14 549.34&#10;  Q 364.80 549.07 366.28 547.77&#10;  C 374.84 540.26 382.32 531.01 391.13 520.64&#10;  C 393.81 517.49 397.26 515.12 401.45 515.68&#10;  C 404.50 516.09 405.19 519.33 404.34 521.86&#10;  Q 402.93 526.10 400.09 530.10&#10;  Q 400.04 530.18 392.75 540.76&#10;  Q 389.32 545.75 388.25 550.77&#10;  A 1.21 1.21 0.0 0 0 389.58 552.22&#10;  C 393.74 551.68 402.87 541.11 405.76 537.42&#10;  A 10.75 10.67 76.4 0 0 407.08 535.24&#10;  Q 414.88 518.11 424.40 505.91&#10;  Q 426.48 503.24 430.12 500.62&#10;  C 433.48 498.20 438.29 499.22 439.72 503.26&#10;  C 441.23 507.51 438.53 512.42 435.85 515.85&#10;  A 0.81 0.81 0.0 0 0 436.00 516.99&#10;  C 444.40 523.43 441.89 536.47 437.38 544.65&#10;  C 433.50 551.67 427.85 558.76 420.46 561.17&#10;  C 411.97 563.93 403.58 559.14 403.55 549.72&#10;  A 0.44 0.44 0.0 0 0 402.75 549.48&#10;  Q 398.93 555.34 393.59 559.29&#10;  C 389.54 562.30 383.87 562.75 380.17 559.10&#10;  C 376.54 555.51 376.36 550.95 377.58 546.20&#10;  Z&#10;  M 413.76 551.15&#10;  A 1.23 1.23 0.0 0 0 415.50 552.29&#10;  C 421.96 549.30 427.45 539.53 429.73 533.30&#10;  C 430.78 530.42 431.01 527.65 428.04 526.39&#10;  A 2.77 2.39 -59.2 0 0 425.00 527.40&#10;  Q 418.25 536.44 414.38 547.62&#10;  Q 413.79 549.34 413.76 551.15&#10;  Z"/>
<path fill="#000000" d="&#10;  M 218.39 519.35&#10;  A 0.22 0.22 0.0 0 1 218.60 519.72&#10;  L 179.65 560.34&#10;  A 0.32 0.32 0.0 0 1 179.11 560.23&#10;  Q 175.02 549.69 164.23 546.07&#10;  A 0.32 0.32 0.0 0 1 164.10 545.55&#10;  Q 171.27 538.08 179.48 529.47&#10;  Q 180.07 528.86 183.87 527.86&#10;  Q 189.13 526.48 218.39 519.35&#10;  Z"/>
<path fill="#ffffff" d="&#10;  M 413.76 551.15&#10;  Q 413.79 549.34 414.38 547.62&#10;  Q 418.25 536.44 425.00 527.40&#10;  A 2.77 2.39 -59.2 0 1 428.04 526.39&#10;  C 431.01 527.65 430.78 530.42 429.73 533.30&#10;  C 427.45 539.53 421.96 549.30 415.50 552.29&#10;  A 1.23 1.23 0.0 0 1 413.76 551.15&#10;  Z"/>
<path fill="#000000" d="&#10;  M 231.63 541.17&#10;  L 236.95 531.95&#10;  A 0.31 0.31 0.0 0 1 237.25 531.80&#10;  L 270.95 534.67&#10;  A 0.31 0.31 0.0 0 1 271.18 534.81&#10;  L 273.45 538.43&#10;  A 0.31 0.31 0.0 0 1 273.21 538.90&#10;  L 231.92 541.63&#10;  A 0.31 0.31 0.0 0 1 231.63 541.17&#10;  Z"/>
<path fill="#000000" d="&#10;  M 494.38 531.99&#10;  L 500.83 540.99&#10;  A 0.42 0.42 0.0 0 1 500.46 541.65&#10;  L 457.74 538.78&#10;  A 0.42 0.42 0.0 0 1 457.46 538.07&#10;  L 460.63 534.76&#10;  A 0.42 0.42 0.0 0 1 460.90 534.64&#10;  L 494.00 531.82&#10;  A 0.42 0.42 0.0 0 1 494.38 531.99&#10;  Z"/>
<ellipse fill="#000000" cx="0.00" cy="0.00" transform="translate(558.76,548.21) rotate(-43.8)" rx="11.01" ry="7.17"/>
<ellipse fill="#000000" cx="0.00" cy="0.00" transform="translate(164.68,560.47) rotate(43.7)" rx="10.99" ry="7.16"/>
</svg>